g Group53527
v -33.95013 -52.53732 -0.4325806
v -37.83463 -52.54076 -0.2654834
v -34.56018 -52.0172 -0.02948364
v -24.94788 -52.63187 -0.4673242
v -26.13051 -50.79383 -0.3106799
v -24.97675 -49.15725 -0.4673242
v -27.80244 -51.5393 -0.06535278
v -34.0477 -50.61879 0.2456921
v -33.79359 -49.14162 -0.4021021
v -33.29559 -49.65659 0.07136597
v -36.80623 -50.97293 0.1550281
v -34.56018 -52.0172 -0.02948364
v -37.83463 -52.54076 -0.2654834
v -45.56142 -49.15319 -0.4463574
v -43.52912 -49.46753 -0.2205847
v -46.22568 -50.40805 0.2353796
v -47.92633 -51.04261 0.3135937
v -50.60093 -52.53756 -0.4642236
v -50.25325 -50.99079 -0.2222571
v -45.41082 -52.18847 -0.01841431
v -44.16271 -52.54497 -0.4314575
v -50.60093 -52.53756 -0.4642236
v -43.52912 -49.46753 -0.2205847
v -43.2998 -50.84496 0.2199792
v -46.22568 -50.40805 0.2353796
v -40.73273 -51.18255 0.0682312
v -42.15842 -52.5973 -0.4031555
v -43.04555 -51.66713 0.1747986
v -50.25325 -50.99079 -0.2222571
v -47.53258 -49.64249 0.3458569
v -47.92633 -51.04261 0.3135937
v -31.86301 -49.13951 -0.3382104
v -29.58705 -49.11152 -0.3073913
v -31.41414 -49.46218 -0.360885
v -34.0477 -50.61879 0.2456921
v -31.11113 -50.59813 0.2764087
v -32.51449 -51.49027 0.3469495
v -29.58705 -49.11152 -0.3073913
v -24.97675 -49.15725 -0.4673242
v -26.13051 -50.79383 -0.3106799
v -27.80244 -51.5393 -0.06535278
v -24.94788 -52.63187 -0.4673242
v -28.88471 -52.55929 -0.3931018
v -29.13283 -50.02424 0.3129602
v -26.13051 -50.79383 -0.3106799
v -27.80244 -51.5393 -0.06535278
v -29.58705 -49.11152 -0.3073913
v -26.13051 -50.79383 -0.3106799
v -29.13283 -50.02424 0.3129602
v -45.41082 -52.18847 -0.01841431
v -50.60093 -52.53756 -0.4642236
v -47.92633 -51.04261 0.3135937
v -43.2998 -50.84496 0.2199792
v -45.41082 -52.18847 -0.01841431
v -47.92633 -51.04261 0.3135937
v -40.09019 -52.55148 -0.399126
v -40.73273 -51.18255 0.0682312
v -38.37352 -51.53549 0.1869971
v -36.90726 -49.87443 -0.05349365
v -34.38697 -49.3231 -0.1891296
v -34.0477 -50.61879 0.2456921
v -38.8301 -50.58157 0.2153418
v -40.8392 -50.02095 0.05563476
v -31.92959 -52.24647 -0.1332727
v -33.95013 -52.53732 -0.4325806
v -34.56018 -52.0172 -0.02948364
v -32.51449 -51.49027 0.3469495
v -34.56018 -52.0172 -0.02948364
v -34.0477 -50.61879 0.2456921
v -34.0477 -50.61879 0.2456921
v -34.56018 -52.0172 -0.02948364
v -36.80623 -50.97293 0.1550281
v -36.80623 -50.97293 0.1550281
v -36.90726 -49.87443 -0.05349365
v -34.0477 -50.61879 0.2456921
v -33.29559 -49.65659 0.07136597
v -31.11113 -50.59813 0.2764087
v -31.92959 -52.24647 -0.1332727
v -34.56018 -52.0172 -0.02948364
v -32.51449 -51.49027 0.3469495
v -31.11113 -50.59813 0.2764087
v -31.92959 -52.24647 -0.1332727
v -32.51449 -51.49027 0.3469495
v -41.85791 -49.09407 -0.2554785
v -37.85822 -49.14471 -0.4208594
v -38.72277 -49.51993 -0.4257861
v -36.90726 -49.87443 -0.05349365
v -38.72277 -49.51993 -0.4257861
v -37.85822 -49.14471 -0.4208594
v -41.85791 -49.09407 -0.2554785
v -38.72277 -49.51993 -0.4257861
v -40.8392 -50.02095 0.05563476
v -36.90726 -49.87443 -0.05349365
v -36.80623 -50.97293 0.1550281
v -38.8301 -50.58157 0.2153418
v -40.8392 -50.02095 0.05563476
v -38.72277 -49.51993 -0.4257861
v -36.90726 -49.87443 -0.05349365
v -31.11113 -50.59813 0.2764087
v -29.42387 -52.03622 0.1626208
v -31.92959 -52.24647 -0.1332727
v -28.88471 -52.55929 -0.3931018
v -31.92959 -52.24647 -0.1332727
v -29.42387 -52.03622 0.1626208
v -43.2998 -50.84496 0.2199792
v -40.73273 -51.18255 0.0682312
v -43.04555 -51.66713 0.1747986
v -43.2998 -50.84496 0.2199792
v -41.85791 -49.09407 -0.2554785
v -40.8392 -50.02095 0.05563476
v -43.52912 -49.46753 -0.2205847
v -41.85791 -49.09407 -0.2554785
v -45.56142 -49.15319 -0.4463574
v -29.2824 -51.0361 0.4673254
v -29.42387 -52.03622 0.1626208
v -31.11113 -50.59813 0.2764087
v -31.41414 -49.46218 -0.360885
v -29.58705 -49.11152 -0.3073913
v -29.13283 -50.02424 0.3129602
v -44.16271 -52.54497 -0.4314575
v -43.04555 -51.66713 0.1747986
v -42.15842 -52.5973 -0.4031555
v -37.85822 -49.14471 -0.4208594
v -34.38697 -49.3231 -0.1891296
v -36.90726 -49.87443 -0.05349365
v -43.2998 -50.84496 0.2199792
v -43.04555 -51.66713 0.1747986
v -45.41082 -52.18847 -0.01841431
v -43.04555 -51.66713 0.1747986
v -44.16271 -52.54497 -0.4314575
v -45.41082 -52.18847 -0.01841431
v -38.8301 -50.58157 0.2153418
v -38.37352 -51.53549 0.1869971
v -40.73273 -51.18255 0.0682312
v -43.2998 -50.84496 0.2199792
v -40.8392 -50.02095 0.05563476
v -40.73273 -51.18255 0.0682312
v -50.60421 -49.0986 -0.4596631
v -50.25325 -50.99079 -0.2222571
v -50.60093 -52.53756 -0.4642236
v -50.60421 -49.0986 -0.4596631
v -47.20224 -49.10437 -0.3814331
v -50.25325 -50.99079 -0.2222571
v -36.80623 -50.97293 0.1550281
v -38.37352 -51.53549 0.1869971
v -38.8301 -50.58157 0.2153418
v -37.83463 -52.54076 -0.2654834
v -38.37352 -51.53549 0.1869971
v -36.80623 -50.97293 0.1550281
v -29.2824 -51.0361 0.4673254
v -27.80244 -51.5393 -0.06535278
v -29.42387 -52.03622 0.1626208
v -29.42387 -52.03622 0.1626208
v -27.80244 -51.5393 -0.06535278
v -28.88471 -52.55929 -0.3931018
v -50.25325 -50.99079 -0.2222571
v -47.20224 -49.10437 -0.3814331
v -47.53258 -49.64249 0.3458569
v -47.53258 -49.64249 0.3458569
v -45.56142 -49.15319 -0.4463574
v -46.22568 -50.40805 0.2353796
v -27.80244 -51.5393 -0.06535278
v -29.2824 -51.0361 0.4673254
v -29.13283 -50.02424 0.3129602
v -29.2824 -51.0361 0.4673254
v -31.11113 -50.59813 0.2764087
v -29.13283 -50.02424 0.3129602
v -47.20224 -49.10437 -0.3814331
v -45.56142 -49.15319 -0.4463574
v -47.53258 -49.64249 0.3458569
v -40.73273 -51.18255 0.0682312
v -40.09019 -52.55148 -0.399126
v -42.15842 -52.5973 -0.4031555
v -34.38697 -49.3231 -0.1891296
v -33.79359 -49.14162 -0.4021021
v -34.0477 -50.61879 0.2456921
v -37.85822 -49.14471 -0.4208594
v -33.79359 -49.14162 -0.4021021
v -34.38697 -49.3231 -0.1891296
v -47.92633 -51.04261 0.3135937
v -47.53258 -49.64249 0.3458569
v -46.22568 -50.40805 0.2353796
v -47.92633 -51.04261 0.3135937
v -46.22568 -50.40805 0.2353796
v -43.2998 -50.84496 0.2199792
v -31.11113 -50.59813 0.2764087
v -31.41414 -49.46218 -0.360885
v -29.13283 -50.02424 0.3129602
v -37.83463 -52.54076 -0.2654834
v -40.09019 -52.55148 -0.399126
v -38.37352 -51.53549 0.1869971
v -33.29559 -49.65659 0.07136597
v -31.41414 -49.46218 -0.360885
v -31.11113 -50.59813 0.2764087
v -33.29559 -49.65659 0.07136597
v -31.86301 -49.13951 -0.3382104
v -31.41414 -49.46218 -0.360885
v -31.92959 -52.24647 -0.1332727
v -28.88471 -52.55929 -0.3931018
v -33.95013 -52.53732 -0.4325806
v -40.8392 -50.02095 0.05563476
v -38.8301 -50.58157 0.2153418
v -40.73273 -51.18255 0.0682312
v -31.86301 -49.13951 -0.3382104
v -33.29559 -49.65659 0.07136597
v -33.79359 -49.14162 -0.4021021
vn 0.03534386 -0.5859669 0.8095638
vn 0.03534386 -0.585967 0.8095638
vn 0.03534386 -0.585967 0.8095638
vn 0.1329947 0.001105015 0.991116
vn 0.1329947 0.001105015 0.9911162
vn 0.1329947 0.001105015 0.9911162
vn 0.1420894 0.007066446 0.9898286
vn -0.3518566 0.4260374 0.8334801
vn -0.3518566 0.4260374 0.8334801
vn -0.3518566 0.4260374 0.8334801
vn -0.03164198 -0.2395119 0.9703777
vn -0.03164197 -0.2395119 0.9703777
vn -0.03164198 -0.2395119 0.9703777
vn -0.02185198 0.4861701 0.8735908
vn -0.02185198 0.4861701 0.8735909
vn -0.02185198 0.4861701 0.8735908
vn -0.2253976 -0.1009233 0.9690254
vn -0.2253976 -0.1009233 0.9690254
vn -0.2253976 -0.1009233 0.9690254
vn -0.004166479 -0.7632089 0.6461383
vn -0.004166479 -0.7632089 0.6461383
vn -0.00416648 -0.7632089 0.6461384
vn 0.05158563 0.3120176 0.9486749
vn 0.05158563 0.3120176 0.9486749
vn 0.05158563 0.3120176 0.9486749
vn 0.131229 -0.4298855 0.8932958
vn 0.131229 -0.4298855 0.8932958
vn 0.131229 -0.4298855 0.8932958
vn -0.2233725 0.04037657 0.9738965
vn -0.2233725 0.04037658 0.9738965
vn -0.2233725 0.04037657 0.9738965
vn -0.01241508 -0.08726855 0.9961075
vn -0.01241509 -0.08726856 0.9961075
vn -0.01241509 -0.08726856 0.9961075
vn -0.01108745 0.09613851 0.9953062
vn -0.01108745 0.0961385 0.9953062
vn -0.01108745 0.09613851 0.9953062
vn 0.03528191 0.07054317 0.9968845
vn 0.0352819 0.07054316 0.9968845
vn 0.03528191 0.07054317 0.9968845
vn 0.01202458 -0.317439 0.9482025
vn 0.01202458 -0.317439 0.9482025
vn 0.01202459 -0.317439 0.9482025
vn 0.1816862 -0.08508462 0.9796687
vn 0.1816862 -0.08508462 0.9796687
vn 0.1816862 -0.08508463 0.9796687
vn 0.3097752 0.6350957 0.7075965
vn 0.3097752 0.6350957 0.7075965
vn 0.3097752 0.6350957 0.7075965
vn -0.05333425 -0.3841518 0.9217282
vn -0.05333425 -0.3841517 0.9217282
vn -0.05333425 -0.3841518 0.9217282
vn 0.02908138 -0.2187598 0.9753453
vn 0.02908138 -0.2187598 0.9753453
vn 0.02908139 -0.2187598 0.9753453
vn -0.1010105 -0.3635755 0.9260722
vn -0.1010105 -0.3635755 0.9260722
vn -0.1010105 -0.3635755 0.9260722
vn -0.01759283 0.3139621 0.9492725
vn -0.01759283 0.3139621 0.9492725
vn -0.01759283 0.3139621 0.9492725
vn 0.01431678 0.321072 0.9469465
vn 0.01431678 0.321072 0.9469465
vn -0.02428521 -0.6300366 0.7761856
vn -0.02428521 -0.6300367 0.7761855
vn -0.02428521 -0.6300366 0.7761856
vn -0.1442216 -0.1399101 0.9796047
vn -0.1442215 -0.1399101 0.9796047
vn -0.1442215 -0.1399101 0.9796047
vn -0.007833591 -0.1903035 0.981694
vn -0.007833591 -0.1903035 0.981694
vn -0.007833591 -0.1903035 0.981694
vn -0.05554263 0.1812718 0.9818633
vn -0.05554263 0.1812718 0.9818633
vn -0.05554263 0.1812718 0.9818633
vn -0.01159082 0.1870259 0.9822866
vn -0.01159082 0.1870259 0.9822866
vn -0.0142971 -0.5438855 0.8390376
vn -0.0142971 -0.5438855 0.8390376
vn -0.0142971 -0.5438855 0.8390376
vn 0.2719488 -0.3571256 0.8935911
vn 0.2719488 -0.3571256 0.8935911
vn 0.2719488 -0.3571255 0.8935911
vn 0.03976314 -0.1046668 0.9937121
vn 0.03976314 -0.1046668 0.9937121
vn 0.03976315 -0.1046668 0.9937121
vn -0.1352582 0.2992488 0.9445398
vn -0.1352582 0.2992488 0.9445398
vn -0.1352582 0.2992488 0.9445398
vn 0.1059111 0.4190787 0.9017516
vn 0.1059111 0.4190787 0.9017516
vn 0.1059111 0.4190787 0.9017516
vn 0.06630111 0.1919651 0.9791596
vn 0.06630111 0.1919651 0.9791596
vn 0.06630112 0.1919651 0.9791596
vn -0.006754385 0.7075312 0.7066498
vn -0.006754385 0.7075312 0.7066498
vn -0.006754385 0.7075313 0.7066498
vn -0.09903519 -0.1934276 0.9761034
vn -0.09903519 -0.1934276 0.9761034
vn -0.09903517 -0.1934276 0.9761034
vn -0.01800625 -0.7367168 0.6759617
vn -0.01800626 -0.7367168 0.6759617
vn -0.01800625 -0.7367168 0.6759617
vn 0.05396787 -0.03814301 0.9978139
vn 0.05396788 -0.03814301 0.9978139
vn 0.05396788 -0.038143 0.9978139
vn -0.03192721 0.2863309 0.9575987
vn -0.03192721 0.2863309 0.9575987
vn -0.03192721 0.2863309 0.9575987
vn -0.04652039 0.2972782 0.9536569
vn -0.05384344 0.3290322 0.9427824
vn -0.05384345 0.3290322 0.9427824
vn -0.1629751 -0.2663798 0.94999
vn -0.1629751 -0.2663798 0.94999
vn -0.1629751 -0.2663798 0.94999
vn -0.1236717 0.5149776 0.8482355
vn -0.1236717 0.5149776 0.8482355
vn -0.1236717 0.5149776 0.8482355
vn -0.02606949 -0.5454035 0.8377681
vn -0.02606949 -0.5454035 0.8377681
vn -0.02606949 -0.5454035 0.8377681
vn -0.03998233 0.4072511 0.9124407
vn -0.03998233 0.4072511 0.9124407
vn -0.03998233 0.4072511 0.9124407
vn -0.0648156 -0.07472752 0.9950954
vn -0.06481559 -0.07472753 0.9950954
vn -0.0648156 -0.07472752 0.9950954
vn 0.0757614 -0.6301222 0.7727911
vn 0.0757614 -0.6301222 0.7727913
vn 0.0757614 -0.6301222 0.7727913
vn -0.05881105 -0.05776194 0.9965966
vn -0.05881105 -0.05776194 0.9965966
vn -0.05881105 -0.05776194 0.9965966
vn 0.06115506 0.01642741 0.9979931
vn 0.06115507 0.01642741 0.9979931
vn 0.06115507 0.01642741 0.9979931
vn -0.5663225 -0.001632529 0.8241821
vn -0.5663225 -0.001632529 0.8241821
vn -0.5663225 -0.001632529 0.8241821
vn -0.02261857 0.1203273 0.9924766
vn -0.02261857 0.1203273 0.9924766
vn -0.02261857 0.1203273 0.9924766
vn 0.02649575 -0.01701733 0.9995041
vn 0.02649575 -0.01701733 0.9995041
vn 0.02649575 -0.01701733 0.9995041
vn 0.1417476 -0.3421205 0.9289032
vn 0.1417476 -0.3421205 0.9289032
vn 0.1417476 -0.3421205 0.9289032
vn 0.2256369 -0.3129924 0.9225636
vn 0.2256369 -0.3129924 0.9225636
vn 0.2256369 -0.3129924 0.9225636
vn 0.2790725 -0.5492184 0.7877042
vn 0.2790726 -0.5492182 0.7877042
vn 0.2790725 -0.5492182 0.7877042
vn -0.4733227 0.7971581 0.3748396
vn -0.4733227 0.7971581 0.3748396
vn -0.4733227 0.7971581 0.3748396
vn 0.2761668 0.341822 0.8982703
vn 0.2761668 0.3418219 0.8982703
vn 0.2761669 0.341822 0.8982703
vn 0.3636269 0.08773069 0.9274043
vn 0.3636269 0.08773069 0.9274043
vn 0.3636269 0.08773069 0.9274043
vn -0.06456038 0.1598158 0.9850335
vn -0.06456038 0.1598158 0.9850335
vn -0.06456038 0.1598158 0.9850335
vn 0.04763662 0.7924991 0.6080097
vn 0.04763662 0.7924991 0.6080097
vn 0.04763661 0.7924991 0.6080097
vn 0.005262789 -0.320875 0.947107
vn 0.005262791 -0.320875 0.947107
vn 0.00526279 -0.320875 0.947107
vn 0.2153006 0.360898 0.9074131
vn 0.2153006 0.360898 0.9074131
vn 0.2153006 0.3608979 0.9074131
vn -0.003550016 0.7659792 0.6428555
vn -0.003550016 0.7659792 0.6428556
vn -0.003550016 0.7659792 0.6428555
vn 0.06082684 -0.04008809 0.997343
vn 0.06082684 -0.04008809 0.997343
vn 0.06082684 -0.04008809 0.997343
vn 0.01685044 0.07770654 0.9968339
vn 0.01685043 0.07770653 0.9968339
vn 0.01685043 0.07770653 0.9968339
vn -0.1478291 0.4536252 0.8788463
vn -0.1478291 0.4536252 0.8788463
vn -0.1478291 0.4536252 0.8788463
vn -0.05127594 -0.432633 0.9001108
vn -0.05127594 -0.4326331 0.9001108
vn -0.05127593 -0.432633 0.9001108
vn 0.1415492 0.5128103 0.8467523
vn 0.1415492 0.5128102 0.8467523
vn 0.1415492 0.5128103 0.8467523
vn 0.1984386 0.208754 0.9576241
vn 0.1984386 0.208754 0.9576241
vn 0.1984386 0.208754 0.9576241
vn -0.008641314 -0.6873513 0.7262737
vn -0.008641313 -0.6873514 0.7262737
vn -0.008641313 -0.6873514 0.7262737
vn -0.07823177 0.003640518 0.9969285
vn -0.07823177 0.003640518 0.9969285
vn -0.07823177 0.003640518 0.9969285
vn -0.02547804 0.6631337 0.7480672
vn -0.02547804 0.6631337 0.7480672
vn -0.02547804 0.6631337 0.7480672
g Group53527_0
f 3/3/3 2/2/2 1/1/1
f 6/6/6 5/5/5 4/4/4
f 5/5/5 7/7/7 4/4/4
f 10/10/10 9/9/9 8/8/8
f 13/13/13 12/12/12 11/11/11
f 16/16/16 15/15/15 14/14/14
f 19/19/19 18/18/18 17/17/17
f 22/22/22 21/21/21 20/20/20
f 25/25/25 24/24/24 23/23/23
f 28/28/28 27/27/27 26/26/26
f 31/31/31 30/30/30 29/29/29
f 34/34/34 33/33/33 32/32/32
f 37/37/37 36/36/36 35/35/35
f 40/40/40 39/39/39 38/38/38
f 43/43/43 42/42/42 41/41/41
f 46/46/46 45/45/45 44/44/44
f 49/49/49 48/48/48 47/47/47
f 52/52/52 51/51/51 50/50/50
f 55/55/55 54/54/54 53/53/53
f 58/58/58 57/57/57 56/56/56
f 61/61/61 60/60/60 59/59/59
f 63/63/63 62/62/62 59/59/59
f 66/66/66 65/65/65 64/64/64
f 69/69/69 68/68/68 67/67/67
f 72/72/72 71/71/71 70/70/70
f 75/75/75 74/74/74 73/73/73
f 75/75/75 77/77/77 76/76/76
f 80/80/80 79/79/79 78/78/78
f 83/83/83 82/82/82 81/81/81
f 86/86/86 85/85/85 84/84/84
f 89/89/89 88/88/88 87/87/87
f 92/92/92 91/91/91 90/90/90
f 95/95/95 94/94/94 93/93/93
f 98/98/98 97/97/97 96/96/96
f 101/101/101 100/100/100 99/99/99
f 104/104/104 103/103/103 102/102/102
f 107/107/107 106/106/106 105/105/105
f 110/110/110 109/109/109 108/108/108
f 109/109/109 111/111/111 108/108/108
f 113/113/113 111/111/111 112/112/112
f 116/116/116 115/115/115 114/114/114
f 119/119/119 118/118/118 117/117/117
f 122/122/122 121/121/121 120/120/120
f 125/125/125 124/124/124 123/123/123
f 128/128/128 127/127/127 126/126/126
f 131/131/131 130/130/130 129/129/129
f 134/134/134 133/133/133 132/132/132
f 137/137/137 136/136/136 135/135/135
f 140/140/140 139/139/139 138/138/138
f 143/143/143 142/142/142 141/141/141
f 146/146/146 145/145/145 144/144/144
f 149/149/149 148/148/148 147/147/147
f 152/152/152 151/151/151 150/150/150
f 155/155/155 154/154/154 153/153/153
f 158/158/158 157/157/157 156/156/156
f 161/161/161 160/160/160 159/159/159
f 164/164/164 163/163/163 162/162/162
f 167/167/167 166/166/166 165/165/165
f 170/170/170 169/169/169 168/168/168
f 173/173/173 172/172/172 171/171/171
f 176/176/176 175/175/175 174/174/174
f 179/179/179 178/178/178 177/177/177
f 182/182/182 181/181/181 180/180/180
f 185/185/185 184/184/184 183/183/183
f 188/188/188 187/187/187 186/186/186
f 191/191/191 190/190/190 189/189/189
f 194/194/194 193/193/193 192/192/192
f 197/197/197 196/196/196 195/195/195
f 200/200/200 199/199/199 198/198/198
f 203/203/203 202/202/202 201/201/201
f 206/206/206 205/205/205 204/204/204
