g Plane002
v -0.1618606 -0.01051451 0.2325584
v -0.1618606 -0.009595798 0.07751947
v -0.05395354 0.01123888 0.07751947
v -0.05395354 0.002567682 0.2325584
v 0.05395355 -0.007728572 0.07751947
v 0.05395355 0.003305558 0.2325584
v 0.1618606 -0.00960963 0.07751947
v 0.1618606 0.005929357 0.2325584
v -0.05395354 -0.001984115 -0.07751947
v -0.1618606 -0.01059163 -0.07751947
v 0.05395355 -0.005503971 -0.07751947
v 0.1618606 0.007828661 -0.07751947
v -0.05395354 0.008488042 -0.2325584
v -0.1618606 0.003732182 -0.2325584
v 0.05395355 -0.003269705 -0.2325584
v 0.1618606 0.003572492 -0.2325584
vt 0 0
vt 0 0.3333333
vt 0.3333333 0.3333333
vt 0.3333333 0
vt 0.6666667 0.3333333
vt 0.6666667 0
vt 1 0.3333333
vt 1 0
vt 0.3333333 0.6666667
vt 0 0.6666667
vt 0.6666667 0.6666667
vt 1 0.6666667
vt 0.3333333 1
vt 0 1
vt 0.6666667 1
vt 1 1
vn -0.1551798 0.9874141 0.03053815
vn -0.145218 0.9893718 -0.00743179
vn -0.02578816 0.9995623 -0.01449368
vn -0.03604256 0.9992829 0.01160111
vn 0.0328324 0.9993273 -0.01633636
vn 0.04040741 0.9980962 -0.04659634
vn -0.02824041 0.9995391 -0.01113297
vn -0.003428989 0.9963421 -0.08538474
vn -0.00577496 0.9999335 0.009991098
vn -0.09865885 0.9949762 0.01699561
vn 0.00708569 0.9998524 0.01565091
vn -0.07310388 0.9969239 0.02826
vn 0.004393224 0.9981664 0.06037151
vn -0.06160647 0.9949244 0.07956103
vn -0.01128398 0.9997876 0.01724233
vn -0.09307467 0.9956381 -0.006492187
g Plane002_0
f 3/3/3 2/2/2 1/1/1
f 4/4/4 3/3/3 1/1/1
f 5/5/5 3/3/3 4/4/4
f 6/6/6 5/5/5 4/4/4
f 7/7/7 5/5/5 6/6/6
f 8/8/8 7/7/7 6/6/6
f 3/3/3 9/9/9 2/2/2
f 9/9/9 10/10/10 2/2/2
f 11/11/11 9/9/9 3/3/3
f 5/5/5 11/11/11 3/3/3
f 12/12/12 11/11/11 5/5/5
f 7/7/7 12/12/12 5/5/5
f 9/9/9 13/13/13 10/10/10
f 13/13/13 14/14/14 10/10/10
f 15/15/15 13/13/13 9/9/9
f 11/11/11 15/15/15 9/9/9
f 16/16/16 15/15/15 11/11/11
f 12/12/12 16/16/16 11/11/11
