g tile
v -35.36829 0 -5.723822
v -35.96804 0 -5.130286
v -46.08162 0 -24.41565
v -25.89929 0 -24.41565
v -30.86829 0 -5.723822
v -30.22365 0 -5.130284
v -46.08161 0 -2.705748
v -35.96804 0 0.2516887
v -46.08162 0 25.58434
v -35.36829 0 0.8470702
v -33.09585 0 25.58434
v -30.86829 0 0.8470702
v -22.48922 0 9.540329
v 3.918381 0 25.58434
v -6.235391 0 9.540329
v 3.918381 0 -24.41565
v -6.235391 0 -8.371645
v -14.91623 0 -8.371645
v -14.91623 0 -4.75117
v -30.22365 0 -4.75117
v -30.22365 0 0.2516892
v -22.48922 0 -0.2224178
v -30.22365 0 -0.2224178
v -30.22365 0 -5.130284
v -25.89929 0 -24.41565
v -30.22365 0 -4.75117
vt 0.2129675 0.625882
vt 0.2010345 0.6145474
vt 0 1
vt 0.4029335 1
vt 0.3043571 0.625882
vt 0.3176062 0.6146102
vt 0 0.5654944
vt 0.2010345 0.5060953
vt 0 0
vt 0.2130201 0.4947388
vt 0.2595237 5.948714E-05
vt 0.3044554 0.4947388
vt 0.4722881 0.320994
vt 1.000551 7.326728E-09
vt 0.797904 0.320994
vt 0.9999815 0.9999906
vt 0.797904 0.6791241
vt 0.6208052 0.6791241
vt 0.6208052 0.6068269
vt 0.3176062 0.6068269
vt 0.3176062 0.5062163
vt 0.4722881 0.5156772
vt 0.3176062 0.515475
vt 0.3176062 0.6146102
vt 0.4029335 1
vt 0.3176062 0.6068269
vn 0 1 -3.335051E-07
vn 0 1 -3.335051E-07
vn 0 1 -3.335051E-07
vn 0 1 0
vn 0 1 0
vn 0 1 -1.041755E-07
vn 0 1 0
vn 0 1 0
vn 0 1 0
vn 0 1 0
vn 0 1 0
vn 0 1 0
vn 0 1 0
vn 0 1 0
vn 0 1 0
vn 0 1 0
vn 0 1 0
vn 0 1 0
vn 0 1 0
vn 0 1 0
vn 0 1 0
vn 0 1 8.522074E-07
vn 0 1 8.522073E-07
vn 0 1 9.530489E-07
vn 0 1 9.53049E-07
vn 0 1 9.530489E-07
g tile_0
f 3/3/3 2/2/2 1/1/1
f 3/3/3 1/1/1 4/4/4
f 4/4/4 1/1/1 5/5/5
f 5/5/5 6/6/6 4/4/4
f 3/3/3 7/7/7 2/2/2
f 2/2/2 7/7/7 8/8/8
f 8/8/8 7/7/7 9/9/9
f 10/10/10 8/8/8 9/9/9
f 11/11/11 10/10/10 9/9/9
f 12/12/12 10/10/10 11/11/11
f 12/12/12 11/11/11 13/13/13
f 14/14/14 13/13/13 11/11/11
f 14/14/14 15/15/15 13/13/13
f 15/15/15 14/14/14 16/16/16
f 16/16/16 17/17/17 15/15/15
f 4/4/4 18/18/18 16/16/16
f 18/18/18 17/17/17 16/16/16
f 18/18/18 4/4/4 19/19/19
f 20/20/20 19/19/19 4/4/4
f 21/21/21 12/12/12 13/13/13
f 21/21/21 13/13/13 22/22/22
f 21/21/21 22/22/22 23/23/23
f 26/26/26 25/25/25 24/24/24
