g tile
v 2.440234E-06 0 -50
v -34.35447 2.441406E-06 -28.65762
v -49.53299 0 -28.65762
v -99.99998 0 -50
v -26.88611 3.051758E-07 -26.80005
v -26.88611 3.051758E-07 -21.48608
v -34.35445 1.831055E-06 -20.50137
v -19.864 3.051758E-07 -26.80005
v 2.440234E-06 0 1.223818E-06
v -19.864 3.051758E-07 -21.48608
v -49.53299 1.831055E-06 -20.50137
v -99.99998 0 1.223818E-06
vt 0.03462628 0.2849931
vt 0.031737 0.289644
vt 0.031737 0.2916989
vt 0.03462628 0.298531
vt 0.03148551 0.288633
vt 0.03076611 0.288633
vt 0.03063281 0.289644
vt 0.03148551 0.2876823
vt 0.02785735 0.2849931
vt 0.03076611 0.2876823
vt 0.03063281 0.2916989
vt 0.02785735 0.298531
vn 0 1 0
vn 0 1 0
vn 0 1 0
vn 0 1 0
vn 1.456312E-07 1 1.391624E-07
vn 1.187732E-07 1 0
vn 1.544036E-07 1 0
vn 1.298229E-07 1 1.618664E-07
vn 0 1 0
vn 0 1 0
vn 0 1 0
vn 0 1 0
g tile_0
f 3/3/3 2/2/2 1/1/1
f 4/4/4 3/3/3 1/1/1
f 2/2/2 5/5/5 1/1/1
f 5/5/5 2/2/2 6/6/6
f 2/2/2 7/7/7 6/6/6
f 5/5/5 8/8/8 1/1/1
f 1/1/1 8/8/8 9/9/9
f 8/8/8 10/10/10 9/9/9
f 7/7/7 9/9/9 10/10/10
f 6/6/6 7/7/7 10/10/10
f 3/3/3 4/4/4 11/11/11
f 4/4/4 12/12/12 11/11/11
f 12/12/12 9/9/9 7/7/7
f 11/11/11 12/12/12 7/7/7
