g StoneThrowing
v -0.03472116 0.02383331 -0.02943419
v -0.04033966 -0.01511504 -0.02800369
v 0.02057146 -0.02383622 -0.0262185
v 0.02618898 0.01511225 -0.0276495
v -0.01423131 0.003052142 0.02720229
v 0.02902804 -0.003191563 0.02710766
v -0.01162996 -0.02195475 0.02033358
v 0.02683148 0.01676627 0.01990069
v 0.02902804 -0.003191563 0.02710766
v -0.01423131 0.003052142 0.02720229
v -0.01162996 -0.02195475 0.02033358
v -0.03871473 -0.01062174 0.01481099
v -0.01423131 0.003052142 0.02720229
v 0.04512925 -0.006623348 -0.00308434
v 0.02057146 -0.02383622 -0.0262185
v 0.02623792 -0.02826212 -0.002661034
v 0.03311917 0.01943978 -0.004413068
v 0.02618898 0.01511225 -0.0276495
v 0.02057146 -0.02383622 -0.0262185
v 0.04512925 -0.006623348 -0.00308434
v 0.02623792 -0.02826212 -0.002661034
v 0.02902804 -0.003191563 0.02710766
v 0.04512925 -0.006623348 -0.00308434
v 0.04512925 -0.006623348 -0.00308434
v 0.02683148 0.01676627 0.01990069
v 0.03311917 0.01943978 -0.004413068
v 0.02683148 0.01676627 0.01990069
v 0.04512925 -0.006623348 -0.00308434
v 0.02902804 -0.003191563 0.02710766
v -0.002755582 0.03465964 -0.005869211
v 0.02618898 0.01511225 -0.0276495
v 0.03311917 0.01943978 -0.004413068
v 0.02618898 0.01511225 -0.0276495
v -0.04148112 0.03012096 -0.006599272
v -0.03472116 0.02383331 -0.02943419
v -0.04148112 0.03012096 -0.006599272
v 0.02618898 0.01511225 -0.0276495
v -0.002755582 0.03465964 -0.005869211
v 0.03311917 0.01943978 -0.004413068
v 0.02683148 0.01676627 0.01990069
v -0.002755582 0.03465964 -0.005869211
v -0.01423131 0.003052142 0.02720229
v -0.04148112 0.03012096 -0.006599272
v -0.002755582 0.03465964 -0.005869211
v 0.02683148 0.01676627 0.01990069
v -0.03472116 0.02383331 -0.02943419
v -0.04148112 0.03012096 -0.006599272
v -0.04033966 -0.01511504 -0.02800369
v -0.03871473 -0.01062174 0.01481099
v -0.04148112 0.03012096 -0.006599272
v -0.01423131 0.003052142 0.02720229
v -0.04148112 0.03012096 -0.006599272
v -0.03871473 -0.01062174 0.01481099
v -0.04033966 -0.01511504 -0.02800369
v -0.04033966 -0.01511504 -0.02800369
v -0.01248763 -0.03280088 -0.003391093
v 0.02057146 -0.02383622 -0.0262185
v 0.02623792 -0.02826212 -0.002661034
v 0.02057146 -0.02383622 -0.0262185
v -0.01248763 -0.03280088 -0.003391093
v -0.04033966 -0.01511504 -0.02800369
v -0.01162996 -0.02195475 0.02033358
v -0.01248763 -0.03280088 -0.003391093
v -0.01162996 -0.02195475 0.02033358
v -0.04033966 -0.01511504 -0.02800369
v -0.03871473 -0.01062174 0.01481099
v -0.01248763 -0.03280088 -0.003391093
v 0.02902804 -0.003191563 0.02710766
v 0.02623792 -0.02826212 -0.002661034
v 0.02902804 -0.003191563 0.02710766
v -0.01248763 -0.03280088 -0.003391093
v -0.01162996 -0.02195475 0.02033358
vt 0.436 0.4286667
vt 0.436 0.4753334
vt 0.4733333 0.298
vt 0.4733333 0.298
vt 0.5293334 0.7086667
vt 0.576 0.6153333
vt 0.4593333 0.732
vt 0.6973333 0.7460001
vt 0.576 0.6153333
vt 0.5293334 0.7086667
vt 0.4593333 0.732
vt 0.5293334 0.802
vt 0.5293334 0.7086667
vt 0.5293334 0.522
vt 0.4733333 0.298
vt 0.6226667 0.522
vt 0.436 0.522
vt 0.4733333 0.298
vt 0.4733333 0.298
vt 0.5293334 0.522
vt 0.6226667 0.522
vt 0.576 0.6153333
vt 0.5293334 0.522
vt 0.5293334 0.522
vt 0.6973333 0.7460001
vt 0.436 0.522
vt 0.6973333 0.7460001
vt 0.5293334 0.522
vt 0.576 0.6153333
vt 0.5293334 0.522
vt 0.4733333 0.298
vt 0.436 0.522
vt 0.4733333 0.298
vt 0.5293334 0.522
vt 0.436 0.4286667
vt 0.5293334 0.522
vt 0.4733333 0.298
vt 0.5293334 0.522
vt 0.436 0.522
vt 0.6973333 0.7460001
vt 0.5293334 0.522
vt 0.5293334 0.7086667
vt 0.5293334 0.522
vt 0.5293334 0.522
vt 0.6973333 0.7460001
vt 0.436 0.4286667
vt 0.5293334 0.522
vt 0.436 0.4753334
vt 0.5293334 0.802
vt 0.5293334 0.522
vt 0.5293334 0.7086667
vt 0.5293334 0.522
vt 0.5293334 0.802
vt 0.436 0.4753334
vt 0.436 0.4753334
vt 0.5293334 0.522
vt 0.4733333 0.298
vt 0.6226667 0.522
vt 0.4733333 0.298
vt 0.5293334 0.522
vt 0.436 0.4753334
vt 0.4593333 0.732
vt 0.5293334 0.522
vt 0.4593333 0.732
vt 0.436 0.4753334
vt 0.5293334 0.802
vt 0.5293334 0.522
vt 0.576 0.6153333
vt 0.6226667 0.522
vt 0.576 0.6153333
vt 0.5293334 0.522
vt 0.4593333 0.732
vn 0.02356332 -0.04009341 -0.9989181
vn 0.02352359 -0.04011328 -0.9989182
vn 0.0234839 -0.04009349 -0.99892
vn 0.02356332 -0.04009341 -0.9989181
vn 0.005801599 -0.2737133 0.9617938
vn 0.005801599 -0.2737133 0.9617938
vn 0.005801606 -0.2737087 0.9617952
vn 0.09385771 0.337403 0.9366696
vn 0.0938177 0.3374218 0.9366669
vn 0.09384087 0.3374338 0.9366602
vn -0.565387 -0.2072317 0.7983686
vn -0.5653421 -0.2072298 0.7984011
vn -0.565387 -0.2072317 0.7983686
vn 0.9112847 -0.3915838 -0.127367
vn 0.9112965 -0.3915718 -0.1273184
vn 0.9112926 -0.3915701 -0.1273527
vn 0.8632689 0.07911476 -0.4985054
vn 0.985065 -0.1454749 -0.09210894
vn 0.8632753 0.07911536 -0.4984943
vn 0.8632552 0.07913703 -0.4985256
vn 0.8973846 -0.3747844 0.2328893
vn 0.8973692 -0.3748112 0.2329059
vn 0.8973891 -0.3747764 0.2328855
vn 0.9816889 0.1205951 0.147458
vn 0.9816943 0.120576 0.1474369
vn 0.9816898 0.1205953 0.1474511
vn 0.97435 0.03848367 0.2217232
vn 0.9743533 0.03845556 0.2217131
vn 0.974349 0.03845539 0.221732
vn 0.6465728 0.7258272 -0.2347733
vn 0.6465798 0.7258129 -0.2347984
vn 0.6465858 0.7258195 -0.2347609
vn 0.1445595 0.9641141 -0.2226804
vn 0.1445592 0.964112 -0.2226899
vn 0.1445984 0.9641085 -0.2226792
vn -0.3090623 0.6776881 -0.6672477
vn -0.3090645 0.6776531 -0.667282
vn -0.3090506 0.6776662 -0.6672751
vn 0.6401981 0.7465534 0.1811199
vn 0.6402099 0.7465473 0.1811034
vn 0.6402351 0.7465246 0.1811078
vn -0.3918773 0.7066219 0.589167
vn -0.3333798 0.7165082 0.6127592
vn -0.3918382 0.7066677 0.589138
vn -0.3918478 0.7066254 0.5891823
vn -0.9793656 0.1358221 -0.1496507
vn -0.9793674 0.1358113 -0.1496488
vn -0.9793682 0.1358026 -0.1496511
vn -0.8556667 0.2847852 0.4321248
vn -0.855663 0.2847839 0.4321329
vn -0.8556863 0.2847718 0.432095
vn -0.9979129 0.06456991 0.0006655667
vn -0.9979143 0.06455012 0.0006755014
vn -0.9979169 0.06451055 0.0006357677
vn -0.1087988 -0.8615295 -0.4959129
vn -0.1088148 -0.8615379 -0.4958949
vn -0.1088381 -0.8615258 -0.4959108
vn 0.4129349 -0.8937387 -0.1752599
vn 0.4129456 -0.8937221 -0.1753191
vn 0.412918 -0.8937451 -0.1752662
vn -0.930155 -0.3200587 0.1799275
vn -0.9301611 -0.3200409 0.1799286
vn -0.9301603 -0.3200338 0.1799445
vn -0.6735989 -0.7341381 0.08547393
vn -0.6735977 -0.7341349 0.08551098
vn -0.6735772 -0.7341558 0.08549355
vn 0.3360737 -0.7353687 0.5884618
vn 0.3360519 -0.7353495 0.5884982
vn 0.3360904 -0.7353616 0.5884612
vn 0.6927444 -0.6650473 0.2789575
vn 0.6927776 -0.6650013 0.2789847
vn 0.6927757 -0.6649995 0.2789938
g StoneThrowing_0
f 3/3/3 2/2/2 1/1/1
f 4/4/4 3/3/3 1/1/1
f 7/7/7 6/6/6 5/5/5
f 10/10/10 9/9/9 8/8/8
f 13/13/13 12/12/12 11/11/11
f 16/16/16 15/15/15 14/14/14
f 19/19/19 18/18/18 17/17/17
f 20/20/20 19/19/19 17/17/17
f 23/23/23 22/22/22 21/21/21
f 26/26/26 25/25/25 24/24/24
f 29/29/29 28/28/28 27/27/27
f 32/32/32 31/31/31 30/30/30
f 35/35/35 34/34/34 33/33/33
f 38/38/38 37/37/37 36/36/36
f 41/41/41 40/40/40 39/39/39
f 44/44/44 43/43/43 42/42/42
f 45/45/45 44/44/44 42/42/42
f 48/48/48 47/47/47 46/46/46
f 51/51/51 50/50/50 49/49/49
f 54/54/54 53/53/53 52/52/52
f 57/57/57 56/56/56 55/55/55
f 60/60/60 59/59/59 58/58/58
f 63/63/63 62/62/62 61/61/61
f 66/66/66 65/65/65 64/64/64
f 69/69/69 68/68/68 67/67/67
f 72/72/72 71/71/71 70/70/70
